<?xml version="1.0" encoding="UTF-8"?>
<svg id="_Слой_1" data-name="Слой 1" xmlns="http://www.w3.org/2000/svg" viewBox="0 0 5906.6142 5906.6142">
  <defs>
    <style>
      .cls-1 {
        fill: #394656;
      }

      .cls-2 {
        fill: #48cefd;
      }

      .cls-3 {
        fill: #69bffa;
      }

      .cls-4 {
        fill: #75e6f8;
      }

      .cls-5 {
        fill: #31638c;
      }

      .cls-6 {
        fill: #1f4d74;
      }

      .cls-7 {
        fill: #005f86;
      }

      .cls-8 {
        fill: #222c37;
      }

      .cls-9 {
        fill: #a3fcfc;
      }

      .cls-10 {
        fill: #1a212a;
      }
    </style>
  </defs>
  <circle class="cls-3" cx="2953.3071" cy="2953.3071" r="2953.3071"/>
  <path class="cls-5" d="M1251.6324,3599.9164l2257.1709,2257.1709c1199.624-229.0225,2143.748-1196.7412,2354.1162-2402.8794L3624.63,1215.9188,1251.6324,3599.9164Z"/>
  <path class="cls-6" d="M3624.4342,1216.1153l-367.6509-367.6509c-75.6001-75.5996-174.9238-112.9917-274.0073-112.2246V5331.0596l526.0273,526.0273c1199.624-229.0225,2143.748-1196.7412,2354.1162-2402.8789L3624.63,1215.919l-.1958,.1963Z"/>
  <rect class="cls-1" x="1554.9794" y="1170.094" width="2861.3024" height="2860.9284" rx="383.2807" ry="383.2807" transform="translate(-964.4014 2872.8455) rotate(-45)"/>
  <rect class="cls-1" x="1554.6248" y="1874.7651" width="2861.3024" height="2860.9284" rx="383.2807" ry="383.2807" transform="translate(-1462.783 3078.9881) rotate(-45)"/>
  <path class="cls-8" d="M3256.7833,848.4644c-.2969-.2964-.6011-.5806-.8989-.876-2.0581-2.0449-4.1265-4.0737-6.2192-6.0625-.8154-.7744-1.6475-1.5205-2.4678-2.2866-1.5923-1.4878-3.1802-2.9824-4.792-4.438-.9033-.8159-1.8242-1.6021-2.7334-2.4077-1.5483-1.3721-3.0913-2.7534-4.6567-4.0957-.9214-.7905-1.8594-1.5518-2.7866-2.332-1.5747-1.3252-3.144-2.6597-4.7349-3.9556-.9038-.7363-1.8228-1.4443-2.7319-2.1714-1.6333-1.3057-3.2622-2.6191-4.9116-3.894-.8887-.6875-1.7915-1.3477-2.6851-2.0259-1.688-1.2817-3.373-2.5693-5.0776-3.8193-.8618-.6323-1.7368-1.2388-2.603-1.8633-1.7544-1.2642-3.5068-2.5332-5.2778-3.7642-.8228-.5718-1.6567-1.1196-2.4824-1.6841-1.8311-1.2515-3.6611-2.5054-5.5088-3.7212-.7837-.5161-1.5776-1.0093-2.3643-1.519-1.9062-1.2344-3.812-2.4692-5.7354-3.666-.7388-.4604-1.4873-.8999-2.229-1.355-1.9854-1.2168-3.9712-2.4321-5.9736-3.6099-.6904-.4062-1.3892-.793-2.0815-1.1948-2.0669-1.1978-4.1357-2.3916-6.2197-3.5479-.6406-.3555-1.2881-.6934-1.9297-1.0449-2.1494-1.1758-4.3013-2.3452-6.4678-3.4766-.5869-.3071-1.1802-.5981-1.7686-.9019-2.2314-1.1514-4.4668-2.2925-6.7158-3.3965-.5361-.2632-1.0771-.5127-1.6138-.7734-2.313-1.1216-4.6304-2.2314-6.9604-3.3047-.4785-.2197-.9609-.4282-1.4399-.6465-2.3965-1.0908-4.7979-2.167-7.2119-3.2065-.4258-.1831-.855-.3564-1.2817-.5381-2.4751-1.0547-4.9556-2.0923-7.4478-3.0923-.3716-.1494-.7461-.2896-1.1182-.4375-2.5532-1.0156-5.1123-2.0107-7.6826-2.9692-.3188-.1191-.6401-.231-.9595-.3491-2.6279-.9717-5.2627-1.9214-7.9072-2.8335-.269-.0933-.54-.1797-.8096-.272-2.6987-.9248-5.4043-1.8242-8.1191-2.6865-.2207-.0703-.4429-.1357-.6641-.2056-2.7666-.873-5.54-1.7192-8.3223-2.5283-.1743-.0508-.3496-.0981-.5244-.1484-2.8311-.8193-5.6689-1.6089-8.5146-2.3613-.1299-.0342-.2598-.0659-.3892-.1001-2.8921-.7612-5.7905-1.4917-8.6968-2.1846-.0889-.021-.1782-.0405-.2676-.062-2.9468-.7002-5.9004-1.3677-8.8599-1.9976-.0532-.0107-.106-.021-.1592-.0322-2.9951-.6362-5.9961-1.2373-9.0024-1.8013-.0249-.0044-.0498-.0088-.0742-.0137-24.4087-4.5718-49.1758-6.7622-73.9277-6.5703v3728.6401c98.9956,.6982,198.21-36.6953,273.7427-112.2275l1481.2056-1481.2061c149.6807-149.6802,149.6807-392.3604,0-542.0405L3256.7833,848.4644Z"/>
  <rect class="cls-2" x="1919.7809" y="2054.8061" width="2126.3811" height="2126.3811" transform="translate(-1331.0645 3022.5194) rotate(-45)"/>
  <polygon class="cls-9" points="4653.7058 2951.142 2982.9773 1280.4135 2816.1213 1447.2695 2816.0726 1447.2207 1312.4942 2950.7993 1479.5585 3117.8636 2982.9286 1614.4934 4486.6416 3118.2062 4653.7058 2951.142"/>
  <path class="cls-10" d="M3256.4283,1553.1358c-75.5093-75.5098-174.6865-112.9048-273.6523-112.229v3728.6479c98.8779,.6074,197.9458-36.7891,273.3882-112.2314l1481.2056-1481.2061c149.6807-149.6802,149.6807-392.3599,0-542.0405l-1480.9414-1480.9409Z"/>
  <polygon class="cls-7" points="2982.776 1614.6133 2982.776 4621.3799 2982.9713 4621.5752 4486.5494 3117.9966 2982.9713 1614.418 2982.776 1614.6133"/>
  <polygon class="cls-4" points="2982.776 1280.6148 2982.776 1614.646 2982.9288 1614.4932 4486.6412 3118.2061 4653.7057 2951.1421 2982.9771 1280.4136 2982.776 1280.6148"/>
</svg>